<?xml version="1.0" encoding="UTF-8"?>
<svg version="1.1" xmlns="http://www.w3.org/2000/svg" width="16" height="16">
<path d="M0 0 C5.28 0 10.56 0 16 0 C16 5.28 16 10.56 16 16 C10.72 16 5.44 16 0 16 C0 10.72 0 5.44 0 0 Z " fill="#F4F4F4" transform="translate(0,0)"/>
<path d="M0 0 C1.98 0 3.96 0 6 0 C6.33 2.64 6.66 5.28 7 8 C5.02 8.99 5.02 8.99 3 10 C3 10.99 3 11.98 3 13 C5.97 13 8.94 13 12 13 C8.69756694 16.30243306 4.55028914 15.64997776 0 16 C0 10.72 0 5.44 0 0 Z " fill="#FAFAFA" transform="translate(0,0)"/>
<path d="M0 0 C0.99 0.33 1.98 0.66 3 1 C2.67 3.31 2.34 5.62 2 8 C3.32 8 4.64 8 6 8 C6 8.99 6 9.98 6 11 C2.7 11 -0.6 11 -4 11 C-4 10.01 -4 9.02 -4 8 C-3.01 7.34 -2.02 6.68 -1 6 C-0.83328148 3.4582293 -0.83328148 3.4582293 -1 1 C-0.67 0.67 -0.34 0.34 0 0 Z " fill="#E4DFD1" transform="translate(7,2)"/>
<path d="M0 0 C1.9375 0.625 1.9375 0.625 4 2 C4.875 5 4.875 5 5 8 C4.34 8.66 3.68 9.32 3 10 C3 9.34 3 8.68 3 8 C1.68 8 0.36 8 -1 8 C-1.125 2.25 -1.125 2.25 0 0 Z " fill="#FEFEFE" transform="translate(10,2)"/>
<path d="M0 0 C0.33 0.66 0.66 1.32 1 2 C2.65 2 4.3 2 6 2 C6 2.66 6 3.32 6 4 C2.7 4 -0.6 4 -4 4 C-4 3.34 -4 2.68 -4 2 C-2.68 1.34 -1.36 0.68 0 0 Z " fill="#C6C4BD" transform="translate(7,9)"/>
</svg>
